<?xml version="1.0" standalone="no"?>
<!DOCTYPE svg PUBLIC "-//W3C//DTD SVG 20010904//EN"
 "http://www.w3.org/TR/2001/REC-SVG-20010904/DTD/svg10.dtd">
<svg version="1.0" xmlns="http://www.w3.org/2000/svg"
 width="365.000000pt" height="365.000000pt" viewBox="0 0 365.000000 365.000000"
 preserveAspectRatio="xMidYMid meet">
<metadata>
Created by potrace 1.14, written by Peter Selinger 2001-2017
</metadata>
<g transform="translate(0.000000,365.000000) scale(0.100000,-0.100000)"
fill="#000000" stroke="none">
<path d="M1725 3283 c-79 -9 -207 -48 -258 -76 -128 -72 -199 -138 -223 -205
l-12 -37 -60 3 c-72 5 -102 -9 -160 -72 -112 -122 -155 -239 -187 -507 -11
-98 -22 -139 -61 -236 -25 -65 -57 -136 -70 -158 -12 -22 -36 -74 -53 -116
-59 -147 -77 -462 -35 -622 23 -92 85 -214 145 -287 l52 -64 5 -101 c5 -119
-5 -149 -53 -172 -24 -11 -35 -23 -35 -38 0 -38 76 -94 147 -109 27 -6 32 -13
35 -39 2 -26 12 -37 58 -64 39 -23 61 -31 80 -26 48 11 125 50 145 73 11 12
37 31 57 41 l37 19 13 -26 c8 -17 31 -34 63 -46 92 -36 193 -5 268 83 l35 40
7 -39 c7 -44 34 -78 72 -93 56 -21 150 -3 195 38 17 15 21 14 51 -15 41 -40
75 -52 143 -52 51 0 114 21 114 38 0 4 4 13 9 21 7 11 13 10 32 -8 57 -54 155
-74 239 -50 25 7 72 11 105 10 55 -2 65 1 123 38 34 23 67 52 72 65 5 15 32
37 68 56 33 17 77 49 98 71 50 52 41 71 -42 82 -32 5 -69 13 -81 17 -27 11
-53 92 -53 167 0 50 2 55 46 95 131 121 204 315 204 543 0 177 -36 309 -149
547 -28 58 -51 110 -51 115 0 6 10 18 21 29 22 19 79 129 79 152 0 18 -8 15
-42 -13 -29 -24 -69 -32 -102 -19 -10 4 -28 46 -47 108 -54 176 -80 249 -120
335 -102 219 -334 410 -575 471 -130 34 -253 45 -349 33z m-94 -677 c57 -8
163 -18 234 -22 72 -3 139 -11 149 -16 46 -24 170 -134 209 -186 59 -78 99
-143 94 -149 -3 -2 -63 -15 -134 -27 -72 -13 -135 -26 -141 -30 -19 -11 -14
-58 8 -81 l19 -20 -47 -35 c-44 -33 -49 -35 -82 -23 -49 17 -154 16 -195 -1
-34 -14 -36 -14 -76 20 -22 19 -46 34 -51 34 -6 0 1 11 16 25 30 28 33 56 9
77 -18 15 -193 48 -254 48 -46 0 -83 -26 -118 -85 -21 -35 -41 -55 -58 -60
-14 -3 -27 -5 -28 -3 -2 2 3 41 10 88 7 47 16 125 20 174 10 141 58 241 130
272 40 17 157 17 286 0z m-187 -486 c7 -7 -12 -10 -59 -10 -67 1 -69 1 -45 15
27 16 86 13 104 -5z m901 5 c29 -13 27 -13 -40 -14 -64 0 -68 1 -51 14 24 18
52 18 91 0z m-775 -80 c48 -17 100 -60 100 -82 0 -12 -5 -12 -27 1 -38 20 -95
37 -88 26 3 -4 19 -11 35 -15 17 -4 44 -21 61 -38 30 -30 31 -33 25 -95 -9
-86 -47 -166 -97 -202 -78 -56 -202 -65 -293 -20 -90 43 -140 163 -119 287 17
98 49 135 134 153 62 13 215 5 269 -15z m868 -2 c60 -30 77 -71 77 -188 0 -84
-4 -107 -22 -142 -57 -106 -177 -148 -312 -107 -70 21 -132 82 -156 155 -20
59 -23 185 -5 218 14 27 68 58 131 76 72 20 236 13 287 -12z m-503 -63 c17 -6
20 -17 21 -82 1 -89 32 -189 73 -239 16 -19 53 -48 82 -64 51 -28 61 -30 164
-30 119 0 142 8 222 78 18 16 33 25 33 21 0 -26 -63 -212 -93 -278 -66 -142
-301 -355 -467 -422 -139 -56 -261 -25 -439 114 -212 166 -301 298 -367 545
-13 51 -4 61 21 23 8 -12 39 -36 68 -52 67 -36 196 -46 275 -20 63 21 130 79
164 143 30 55 50 159 42 214 -4 22 -2 39 5 43 34 21 144 25 196 6z m678 -361
c22 -40 22 -56 -4 -64 -35 -11 -51 13 -37 58 6 20 14 37 17 37 3 0 14 -14 24
-31z"/>
<path d="M1380 1991 c-53 -17 -87 -41 -105 -75 -25 -46 -15 -54 27 -23 58 42
58 42 57 -12 -1 -32 5 -60 15 -76 14 -22 24 -25 74 -25 39 0 67 6 90 20 36 22
46 25 37 10 -3 -5 -2 -10 4 -10 5 0 15 16 22 35 12 33 14 34 36 20 36 -24 27
1 -19 51 -65 71 -93 87 -157 90 -31 2 -67 -1 -81 -5z m73 -65 c3 -8 0 -21 -6
-30 -11 -15 -15 -15 -31 -3 -12 9 -17 20 -13 31 8 20 43 21 50 2z"/>
<path d="M1217 1882 c-28 -29 -33 -42 -18 -42 11 0 55 59 49 65 -3 3 -17 -8
-31 -23z"/>
<path d="M2162 1992 c-18 -4 -33 -11 -34 -17 0 -5 -17 -24 -37 -41 -38 -33
-79 -94 -63 -94 5 0 15 7 22 15 18 22 30 18 30 -9 0 -12 11 -35 24 -49 22 -24
30 -26 73 -21 26 4 63 15 82 26 25 14 36 16 41 7 13 -20 32 28 29 74 -3 49 10
51 53 10 36 -34 51 -27 31 16 -25 51 -78 81 -154 86 -35 2 -79 1 -97 -3z m18
-81 c0 -21 -17 -31 -37 -23 -28 10 -11 39 25 41 6 1 12 -8 12 -18z"/>
<path d="M2063 1969 c-24 -12 -43 -28 -43 -36 0 -11 9 -8 31 11 17 14 37 26
44 26 8 0 17 5 20 10 9 15 -6 12 -52 -11z"/>
<path d="M2460 1870 c12 -16 26 -30 31 -30 6 0 1 14 -11 30 -12 17 -26 30 -31
30 -6 0 -1 -13 11 -30z"/>
<path d="M1222 1570 c6 -21 67 -60 92 -60 16 1 11 6 -19 22 -22 11 -49 28 -59
37 -16 13 -18 14 -14 1z"/>
<path d="M2461 1566 c-6 -8 -34 -23 -61 -35 -58 -25 -63 -32 -17 -22 45 11 75
28 87 51 12 23 8 26 -9 6z"/>
<path d="M1740 1483 c0 -11 9 -28 20 -38 11 -10 20 -21 20 -25 0 -4 -46 -10
-102 -12 -119 -6 -194 -33 -204 -74 -9 -37 3 -44 80 -44 40 0 86 -4 102 -10
64 -21 195 -27 293 -12 80 12 131 16 254 22 4 0 7 13 7 28 0 56 -60 83 -197
90 -57 2 -103 7 -103 9 0 3 9 16 20 30 11 14 20 33 20 42 0 12 -4 10 -15 -6
-35 -50 -128 -52 -172 -5 -21 23 -23 23 -23 5z"/>
</g>
</svg>
